<svg width="100" height="100" viewBox="0 0 100 100" fill="none" xmlns="http://www.w3.org/2000/svg">
<circle cx="47.3081" cy="42.2432" r="24.1919" fill="white" stroke="#16A249" stroke-width="2" stroke-linejoin="round"/>
<path d="M58.4232 38.3208L50.5771 42.2438L58.4232 46.1668" stroke="#16A249" stroke-width="2" stroke-linecap="round" stroke-linejoin="round"/>
<path d="M36.1921 38.3208L44.0381 42.2438L36.1921 46.1668" stroke="#16A249" stroke-width="2" stroke-linecap="round" stroke-linejoin="round"/>
<circle cx="47.3069" cy="42.2434" r="17.6535" stroke="#16A249" stroke-width="2" stroke-linejoin="round"/>
<path d="M60.0068 62.811L65.9491 68.7533M65.4188 57.399L71.3611 63.3414" stroke="#16A249" stroke-width="2" stroke-linejoin="round"/>
<path d="M64.5902 71.2284C62.6376 69.2758 62.6376 66.11 64.5902 64.1573L66.7658 61.9818C68.7184 60.0292 71.8842 60.0292 73.8368 61.9818L83.9265 72.0714C85.8791 74.024 85.8791 77.1899 83.9265 79.1425L81.7509 81.318C79.7983 83.2707 76.6325 83.2707 74.6798 81.318L64.5902 71.2284Z" fill="#16A249"/>
<path d="M72.4336 16.9555C72.9681 16.228 73.9912 16.0715 74.7187 16.6059C75.4462 17.1404 75.6027 18.1635 75.0683 18.891L71.8595 23.2589C71.325 23.9864 70.302 24.1429 69.5744 23.6084C68.8469 23.074 68.6904 22.0509 69.2248 21.3234L72.4336 16.9555Z" stroke="#16A249" stroke-width="2" stroke-linejoin="round"/>
<path d="M79.727 25.2923C80.587 25.0179 81.5067 25.4926 81.7811 26.3526C82.0555 27.2127 81.5808 28.1323 80.7208 28.4068L75.5575 30.0544C74.6974 30.3288 73.7778 29.8541 73.5033 28.9941C73.2289 28.134 73.7036 27.2144 74.5636 26.9399L79.727 25.2923Z" stroke="#16A249" stroke-width="2" stroke-linejoin="round"/>
<path d="M15.5752 58.0852C14.7085 58.3377 14.2106 59.2451 14.4632 60.1118C14.7157 60.9785 15.6231 61.4764 16.4898 61.2238L21.6932 59.7075C22.5599 59.455 23.0578 58.5476 22.8052 57.6809C22.5526 56.8142 21.6453 56.3163 20.7786 56.5689L15.5752 58.0852Z" stroke="#16A249" stroke-width="2" stroke-linejoin="round"/>
<path d="M20.9061 67.7955C20.3534 68.5093 20.4839 69.536 21.1977 70.0887C21.9114 70.6414 22.9381 70.5109 23.4909 69.7971L26.8092 65.5119C27.362 64.7982 27.2314 63.7715 26.5177 63.2188C25.8039 62.666 24.7772 62.7966 24.2245 63.5103L20.9061 67.7955Z" stroke="#16A249" stroke-width="2" stroke-linejoin="round"/>
</svg>
